MRFIXIT is proud to present: Gangs Of Brooklyn 

Source: GANGS OF BROOKLYN 2012 DVD5 RENTAL



Complete name                            : C:Gangs Of Brooklyn-Dvdrip-H264-MRFIXIT.avi
Format                                   : AVI
Format/Info                              : Audio Video Interleave
File size                                : 609 MiB
Duration                                 : 1h 30mn
Overall bit rate                         : 938 Kbps
Writing library                          : VirtualDub build 32839/release                



ID                                       : 0
Format                                   : AVC
Format/Info                              : Advanced Video Codec
Format profile                           : High@L3.0
Format settings, CABAC                   : Yes
Format settings, ReFrames                : 3 frames
Codec ID                                 : H264
Duration                                 : 1h 30mn
Bit rate                                 : 800 Kbps
Width                                    : 720 pixels
Height                                   : 384 pixels
Display aspect ratio                     : 1.85:1
Frame rate                               : 25.000 fps
Color space                              : YUV
Chroma subsampling                       : 4:2:0
Bit depth                                : 8 bits
Scan type                                : Progressive
Bits/(Pixel*Frame)                       : 0.116
Stream size                              : 520 MiB (85%)
Writing library                          : x264 core 129 r2230kMod 1cffe9f
Encoding settings                        : cabac=1 / ref=3 / deblock=1:0:0 / analyse=0x3:0x13 / me=hex / subme=7 / psy=1 / fade_compensate=0.00 / psy_rd=1.00:0.00 / mixed_ref=1 / me_range=16 / chroma_me=1 / trellis=1 / 8x8dct=1 / cqm=0 / deadzone=21,11 / fast_pskip=1 / chroma_qp_offset=-2 / threads=2 / lookahead_threads=2 / sliced_threads=1 / slices=2 / nr=0 / decimate=1 / interlaced=0 / bluray_compat=0 / constrained_intra=0 / bframes=0 / weightp=2 / keyint=250 / keyint_min=25 / scenecut=40 / intra_refresh=0 / rc=2pass / mbtree=0 / bitrate=800 / ratetol=1.0 / qcomp=0.60 / qpmin=10 / qpmax=51 / qpstep=4 / cplxblur=20.0 / qblur=0.5 / ip_ratio=1.40 / aq=1:1.00




ID                                       : 1
Format                                   : MPEG Audio
Format version                           : Version 1
Format profile                           : Layer 3
Mode                                     : Joint stereo
Mode extension                           : MS Stereo
Codec ID                                 : 55
Codec ID/Hint                            : MP3
Duration                                 : 1h 30mn
Bit rate mode                            : Constant
Bit rate                                 : 128 Kbps
Channel(s)                               : 2 channels
Sampling rate                            : 48.0 KHz
Compression mode                         : Lossy
Stream size                              : 83.1 MiB (14%)
Alignment                                : Split accross interleaves
Interleave, duration                     : 40 ms (1.00 video frame)
Interleave, preload duration             : 500 ms
Writing library                          : LAME3.92 (alpha)                            


 
http://www.imdb.com/title/tt1744760/



Four friends pay the ultimate price,when they seek revenge against a low-level Gangster. 

 
http://img839.imageshack.us/img839/674/1111111111e.jpg 
http://img9.imageshack.us/img9/6857/78555663.jpg 
http://img27.imageshack.us/img27/6724/38407931.jpg